# xmcd CD database file
#
# Track frame offsets:
#	150
#	10682
#	23754
#	36939
#	51766
#	64104
#	75686
#	87172
#	96492
#	108353
#	125555
#	141631
#	153494
#	167538
#	182418
#	193933
#	208846
#	225304
#	237004
#
# Disc length: 3389 seconds
#
# Revision: 1
# Processed by: cddbd v1.5.2PL0 Copyright (c) Steve Scherf et al.
# Submitted via: jetAudio 7
#
DISCID=fa0d3b13
DTITLE=Various Artist - Legends of Country Vol. 3
DYEAR=2006
DGENRE=country
TTITLE0=Jerry Reed - When You're Hot, You're Hot
TTITLE1=Freddy Fender - Wasted Days and Wasted Nights
TTITLE2=Lynn Anderson - Rose Garden
TTITLE3=Glenn Campbell - Rhinestone Cowboy
TTITLE4=Charlie Rich - The Most Beautiful Girl
TTITLE5=Sammi Smith - Help Me Make it Through the Night
TTITLE6=Waylon and Willie - Mammas Don't Let Your Babies Grow Up to be Co
TTITLE6=wboys
TTITLE7=Charley Pride - Kiss an Angel Good Mornin'
TTITLE8=Johnny Paycheck - Take this Job and Shove It
TTITLE9=C W McCall - Convoy
TTITLE10=Kenny Rogers - The Gambler
TTITLE11=Crystal Gayle - Don't It Make My Brown Eyes Blue
TTITLE12=Dolly Parton - I Will Always Love You
TTITLE13=Waylon Jennings - Luckenbach, Texas (Back to the Basics of Lov
TTITLE13=e)
TTITLE14=Donna Fargo - The Happiest Girl in the Whole USA
TTITLE15=George Jones - He Stopped Loving Her Today
TTITLE16=Ronnie Milsap - It Was Almost Like a Song
TTITLE17=Willie Nelson - On the Road Again
TTITLE18=Ray Price - For the Good Times
EXTD=
EXTT0=
EXTT1=
EXTT2=
EXTT3=
EXTT4=
EXTT5=
EXTT6=
EXTT7=
EXTT8=
EXTT9=
EXTT10=
EXTT11=
EXTT12=
EXTT13=
EXTT14=
EXTT15=
EXTT16=
EXTT17=
EXTT18=
PLAYORDER=
